<svg width="170" height="41" viewBox="0 0 170 41" fill="none" xmlns="http://www.w3.org/2000/svg">
<path d="M64.3278 17.6562H60.5948C60.5266 17.1733 60.3874 16.7443 60.1772 16.3693C59.967 15.9886 59.6971 15.6648 59.3675 15.3977C59.038 15.1307 58.6573 14.9261 58.2255 14.7841C57.7994 14.642 57.3363 14.571 56.8363 14.571C55.9329 14.571 55.146 14.7955 54.4755 15.2443C53.805 15.6875 53.2852 16.3352 52.9158 17.1875C52.5465 18.0341 52.3619 19.0625 52.3619 20.2727C52.3619 21.517 52.5465 22.5625 52.9158 23.4091C53.2908 24.2557 53.8136 24.8949 54.484 25.3267C55.1545 25.7585 55.93 25.9744 56.8107 25.9744C57.305 25.9744 57.7624 25.9091 58.1829 25.7784C58.609 25.6477 58.9869 25.4574 59.3164 25.2074C59.646 24.9517 59.9187 24.642 60.1346 24.2784C60.3562 23.9148 60.5096 23.5 60.5948 23.0341L64.3278 23.0511C64.2312 23.8523 63.9897 24.625 63.6033 25.3693C63.2227 26.108 62.7085 26.7699 62.0607 27.3551C61.4187 27.9347 60.6516 28.3949 59.7596 28.7358C58.8732 29.071 57.8704 29.2386 56.7511 29.2386C55.1942 29.2386 53.8022 28.8864 52.5749 28.1818C51.3533 27.4773 50.3874 26.4574 49.6772 25.1222C48.9727 23.7869 48.6204 22.1705 48.6204 20.2727C48.6204 18.3693 48.9783 16.75 49.6942 15.4148C50.4102 14.0795 51.3817 13.0625 52.609 12.3636C53.8363 11.6591 55.217 11.3068 56.7511 11.3068C57.7624 11.3068 58.6999 11.4489 59.5636 11.733C60.4329 12.017 61.2028 12.4318 61.8732 12.9773C62.5437 13.517 63.0891 14.179 63.5096 14.9631C63.9357 15.7472 64.2085 16.6449 64.3278 17.6562ZM69.3114 33.9091C68.8512 33.9091 68.4194 33.8722 68.016 33.7983C67.6183 33.7301 67.2887 33.642 67.0273 33.5341L67.8455 30.8239C68.2717 30.9545 68.6552 31.0256 68.9961 31.0369C69.3427 31.0483 69.641 30.9688 69.891 30.7983C70.1467 30.6278 70.354 30.3381 70.5131 29.929L70.7262 29.375L66.0302 15.9091H69.8484L72.5586 25.5227H72.695L75.4308 15.9091H79.2745L74.1864 30.4148C73.9421 31.1193 73.6097 31.733 73.1893 32.2557C72.7745 32.7841 72.2489 33.1903 71.6126 33.4744C70.9762 33.7642 70.2092 33.9091 69.3114 33.9091ZM81.2006 29V11.5455H84.8313V18.108H84.9421C85.1012 17.7557 85.3313 17.3977 85.6325 17.0341C85.9393 16.6648 86.337 16.358 86.8256 16.1136C87.32 15.8636 87.9336 15.7386 88.6665 15.7386C89.6211 15.7386 90.5018 15.9886 91.3086 16.4886C92.1154 16.983 92.7603 17.7301 93.2433 18.7301C93.7262 19.7244 93.9677 20.9716 93.9677 22.4716C93.9677 23.9318 93.7319 25.1648 93.2603 26.1705C92.7944 27.1705 92.158 27.929 91.3512 28.446C90.5501 28.9574 89.6523 29.2131 88.658 29.2131C87.9535 29.2131 87.354 29.0966 86.8597 28.8636C86.3711 28.6307 85.9705 28.3381 85.658 27.9858C85.3455 27.6278 85.1069 27.267 84.9421 26.9034H84.7802V29H81.2006ZM84.7546 22.4545C84.7546 23.233 84.8626 23.9119 85.0785 24.4915C85.2944 25.071 85.6069 25.5227 86.016 25.8466C86.4251 26.1648 86.9222 26.3239 87.5075 26.3239C88.0984 26.3239 88.5984 26.1619 89.0075 25.8381C89.4165 25.5085 89.7262 25.054 89.9364 24.4744C90.1523 23.8892 90.2603 23.2159 90.2603 22.4545C90.2603 21.6989 90.1552 21.0341 89.945 20.4602C89.7347 19.8864 89.4251 19.4375 89.016 19.1136C88.6069 18.7898 88.104 18.6278 87.5075 18.6278C86.9165 18.6278 86.4165 18.7841 86.0075 19.0966C85.604 19.4091 85.2944 19.8523 85.0785 20.4261C84.8626 21 84.7546 21.6761 84.7546 22.4545ZM102.356 29.2557C101.01 29.2557 99.8505 28.983 98.8789 28.4375C97.913 27.8864 97.1687 27.108 96.646 26.1023C96.1232 25.0909 95.8619 23.8949 95.8619 22.5142C95.8619 21.1676 96.1232 19.9858 96.646 18.9688C97.1687 17.9517 97.9045 17.1591 98.8533 16.5909C99.8079 16.0227 100.927 15.7386 102.211 15.7386C103.075 15.7386 103.879 15.8778 104.623 16.1562C105.373 16.429 106.027 16.8409 106.583 17.392C107.146 17.9432 107.583 18.6364 107.896 19.4716C108.208 20.3011 108.365 21.2727 108.365 22.3864V23.3835H97.3107V21.1335H104.947C104.947 20.6108 104.833 20.1477 104.606 19.7443C104.379 19.3409 104.064 19.0256 103.66 18.7983C103.262 18.5653 102.799 18.4489 102.271 18.4489C101.72 18.4489 101.231 18.5767 100.805 18.8324C100.385 19.0824 100.055 19.4205 99.8164 19.8466C99.5778 20.267 99.4556 20.7358 99.4499 21.2528V23.392C99.4499 24.0398 99.5692 24.5994 99.8079 25.071C100.052 25.5426 100.396 25.9062 100.839 26.1619C101.282 26.4176 101.808 26.5455 102.416 26.5455C102.819 26.5455 103.189 26.4886 103.524 26.375C103.859 26.2614 104.146 26.0909 104.385 25.8636C104.623 25.6364 104.805 25.358 104.93 25.0284L108.288 25.25C108.118 26.0568 107.768 26.7614 107.24 27.3636C106.717 27.9602 106.041 28.4261 105.211 28.7614C104.387 29.0909 103.436 29.2557 102.356 29.2557ZM110.734 29V15.9091H114.254V18.1932H114.39C114.629 17.3807 115.029 16.767 115.592 16.3523C116.154 15.9318 116.802 15.7216 117.535 15.7216C117.717 15.7216 117.913 15.733 118.123 15.7557C118.333 15.7784 118.518 15.8097 118.677 15.8494V19.071C118.507 19.0199 118.271 18.9744 117.97 18.9347C117.669 18.8949 117.393 18.875 117.143 18.875C116.609 18.875 116.132 18.9915 115.711 19.2244C115.297 19.4517 114.967 19.7699 114.723 20.179C114.484 20.5881 114.365 21.0597 114.365 21.5938V29H110.734ZM120.623 29V11.5455H127.509C128.833 11.5455 129.961 11.7983 130.892 12.304C131.824 12.804 132.534 13.5 133.023 14.392C133.517 15.2784 133.765 16.3011 133.765 17.4602C133.765 18.6193 133.515 19.642 133.015 20.5284C132.515 21.4148 131.79 22.1051 130.841 22.5994C129.898 23.0937 128.756 23.3409 127.415 23.3409H123.026V20.3835H126.819C127.529 20.3835 128.114 20.2614 128.574 20.017C129.04 19.767 129.387 19.4233 129.614 18.9858C129.847 18.5426 129.963 18.0341 129.963 17.4602C129.963 16.8807 129.847 16.375 129.614 15.9432C129.387 15.5057 129.04 15.1676 128.574 14.929C128.108 14.6847 127.517 14.5625 126.801 14.5625H124.313V29H120.623ZM139.724 11.5455V29H136.093V11.5455H139.724ZM151.027 23.4261V15.9091H154.658V29H151.172V26.6222H151.036C150.74 27.3892 150.249 28.0057 149.561 28.4716C148.88 28.9375 148.047 29.1705 147.064 29.1705C146.189 29.1705 145.419 28.9716 144.755 28.5739C144.09 28.1761 143.57 27.6108 143.195 26.8778C142.826 26.1449 142.638 25.267 142.632 24.2443V15.9091H146.263V23.5966C146.269 24.3693 146.476 24.9801 146.885 25.429C147.294 25.8778 147.843 26.1023 148.53 26.1023C148.968 26.1023 149.377 26.0028 149.757 25.804C150.138 25.5994 150.445 25.2983 150.678 24.9006C150.917 24.5028 151.033 24.0114 151.027 23.4261ZM168.454 19.642L165.13 19.8466C165.074 19.5625 164.951 19.3068 164.764 19.0795C164.576 18.8466 164.329 18.6619 164.022 18.5256C163.721 18.3835 163.36 18.3125 162.94 18.3125C162.377 18.3125 161.903 18.4318 161.517 18.6705C161.13 18.9034 160.937 19.2159 160.937 19.608C160.937 19.9205 161.062 20.1847 161.312 20.4006C161.562 20.6165 161.991 20.7898 162.599 20.9205L164.968 21.3977C166.241 21.6591 167.19 22.0795 167.815 22.6591C168.44 23.2386 168.752 24 168.752 24.9432C168.752 25.8011 168.5 26.554 167.994 27.2017C167.494 27.8494 166.806 28.3551 165.931 28.7188C165.062 29.0767 164.059 29.2557 162.923 29.2557C161.19 29.2557 159.809 28.8949 158.781 28.1733C157.758 27.446 157.159 26.4574 156.983 25.2074L160.554 25.0199C160.662 25.5483 160.923 25.9517 161.338 26.2301C161.752 26.5028 162.284 26.6392 162.931 26.6392C163.568 26.6392 164.079 26.517 164.466 26.2727C164.858 26.0227 165.056 25.7017 165.062 25.3097C165.056 24.9801 164.917 24.7102 164.645 24.5C164.372 24.2841 163.951 24.1193 163.383 24.0057L161.116 23.554C159.838 23.2983 158.886 22.8551 158.261 22.2244C157.642 21.5937 157.332 20.7898 157.332 19.8125C157.332 18.9716 157.559 18.2472 158.014 17.6392C158.474 17.0312 159.119 16.5625 159.949 16.233C160.784 15.9034 161.761 15.7386 162.88 15.7386C164.534 15.7386 165.835 16.0881 166.784 16.7869C167.738 17.4858 168.295 18.4375 168.454 19.642Z" fill="black"/>
<circle cx="21" cy="20" r="16" fill="white"/>
<path fill-rule="evenodd" clip-rule="evenodd" d="M21 40C32.0457 40 41 31.0457 41 20C41 8.95431 32.0457 0 21 0C9.95429 0 1 8.95431 1 20C1 31.0457 9.95429 40 21 40ZM25.54 8.2813L12.1931 17.7896L13.3164 32L27.3164 22.5L25.54 8.2813Z" fill="#1C55C9"/>
</svg>
